<mxfile host="app.diagrams.net" modified="2024-03-30T04:35:01.175Z" agent="Mozilla/5.0 (Macintosh; Intel Mac OS X 10_15_7) AppleWebKit/537.36 (KHTML, like Gecko) Chrome/123.0.0.0 Safari/537.36" etag="fckuHOoaAOl7YeK6gxuy" version="24.2.1" type="github">
  <diagram name="페이지-1" id="mjFrXahVR4kHwiT1oNfT">
    <mxGraphModel dx="1387" dy="977" grid="0" gridSize="10" guides="1" tooltips="1" connect="1" arrows="1" fold="1" page="1" pageScale="1" pageWidth="1600" pageHeight="900" math="0" shadow="0">
      <root>
        <mxCell id="0" />
        <mxCell id="1" parent="0" />
        <mxCell id="HttRAKErzIjSeqWAfoua-1" value="Director" style="whiteSpace=wrap;html=1;align=center;" parent="1" vertex="1">
          <mxGeometry x="550" y="604" width="100" height="40" as="geometry" />
        </mxCell>
        <mxCell id="HttRAKErzIjSeqWAfoua-25" style="edgeStyle=orthogonalEdgeStyle;rounded=0;orthogonalLoop=1;jettySize=auto;html=1;entryX=0;entryY=0.5;entryDx=0;entryDy=0;endArrow=none;endFill=0;" parent="1" source="HttRAKErzIjSeqWAfoua-2" target="HttRAKErzIjSeqWAfoua-24" edge="1">
          <mxGeometry relative="1" as="geometry" />
        </mxCell>
        <mxCell id="HttRAKErzIjSeqWAfoua-2" value="Movie" style="whiteSpace=wrap;html=1;align=center;" parent="1" vertex="1">
          <mxGeometry x="547" y="232" width="100" height="40" as="geometry" />
        </mxCell>
        <mxCell id="HttRAKErzIjSeqWAfoua-5" value="Company" style="whiteSpace=wrap;html=1;align=center;" parent="1" vertex="1">
          <mxGeometry x="1062" y="232" width="100" height="40" as="geometry" />
        </mxCell>
        <mxCell id="HttRAKErzIjSeqWAfoua-6" value="Actor" style="whiteSpace=wrap;html=1;align=center;" parent="1" vertex="1">
          <mxGeometry x="1062" y="598" width="100" height="40" as="geometry" />
        </mxCell>
        <mxCell id="HttRAKErzIjSeqWAfoua-29" style="rounded=0;orthogonalLoop=1;jettySize=auto;html=1;endArrow=none;endFill=0;entryX=0.5;entryY=0;entryDx=0;entryDy=0;" parent="1" source="HttRAKErzIjSeqWAfoua-7" target="HttRAKErzIjSeqWAfoua-2" edge="1">
          <mxGeometry relative="1" as="geometry" />
        </mxCell>
        <mxCell id="HttRAKErzIjSeqWAfoua-7" value="&lt;u&gt;title&lt;/u&gt;" style="ellipse;whiteSpace=wrap;html=1;align=center;" parent="1" vertex="1">
          <mxGeometry x="502" y="96" width="100" height="40" as="geometry" />
        </mxCell>
        <mxCell id="HttRAKErzIjSeqWAfoua-34" style="rounded=0;orthogonalLoop=1;jettySize=auto;html=1;endArrow=none;endFill=0;entryX=0.5;entryY=0;entryDx=0;entryDy=0;" parent="1" source="HttRAKErzIjSeqWAfoua-9" target="HttRAKErzIjSeqWAfoua-2" edge="1">
          <mxGeometry relative="1" as="geometry">
            <mxPoint x="597" y="232" as="targetPoint" />
          </mxGeometry>
        </mxCell>
        <mxCell id="HttRAKErzIjSeqWAfoua-9" value="&lt;u&gt;year of release&lt;/u&gt;" style="ellipse;whiteSpace=wrap;html=1;align=center;" parent="1" vertex="1">
          <mxGeometry x="602" y="111" width="102" height="40" as="geometry" />
        </mxCell>
        <mxCell id="HttRAKErzIjSeqWAfoua-30" style="rounded=0;orthogonalLoop=1;jettySize=auto;html=1;entryX=0.5;entryY=0;entryDx=0;entryDy=0;endArrow=none;endFill=0;" parent="1" source="HttRAKErzIjSeqWAfoua-10" target="HttRAKErzIjSeqWAfoua-2" edge="1">
          <mxGeometry relative="1" as="geometry" />
        </mxCell>
        <mxCell id="HttRAKErzIjSeqWAfoua-10" value="minutes" style="ellipse;whiteSpace=wrap;html=1;align=center;" parent="1" vertex="1">
          <mxGeometry x="448" y="138" width="100" height="40" as="geometry" />
        </mxCell>
        <mxCell id="HttRAKErzIjSeqWAfoua-63" style="rounded=0;orthogonalLoop=1;jettySize=auto;html=1;endArrow=none;endFill=0;entryX=1;entryY=0;entryDx=0;entryDy=0;" parent="1" source="HttRAKErzIjSeqWAfoua-61" target="HttRAKErzIjSeqWAfoua-1" edge="1">
          <mxGeometry relative="1" as="geometry">
            <mxPoint x="783" y="624" as="sourcePoint" />
          </mxGeometry>
        </mxCell>
        <mxCell id="HttRAKErzIjSeqWAfoua-22" style="rounded=0;orthogonalLoop=1;jettySize=auto;html=1;entryX=0.5;entryY=1;entryDx=0;entryDy=0;endArrow=none;endFill=0;shape=link;" parent="1" source="HttRAKErzIjSeqWAfoua-21" target="HttRAKErzIjSeqWAfoua-2" edge="1">
          <mxGeometry relative="1" as="geometry" />
        </mxCell>
        <mxCell id="HttRAKErzIjSeqWAfoua-23" style="rounded=0;orthogonalLoop=1;jettySize=auto;html=1;endArrow=none;endFill=0;shape=link;" parent="1" source="HttRAKErzIjSeqWAfoua-21" target="HttRAKErzIjSeqWAfoua-1" edge="1">
          <mxGeometry relative="1" as="geometry" />
        </mxCell>
        <mxCell id="HttRAKErzIjSeqWAfoua-21" value="direct" style="shape=rhombus;perimeter=rhombusPerimeter;whiteSpace=wrap;html=1;align=center;" parent="1" vertex="1">
          <mxGeometry x="541" y="413" width="120" height="60" as="geometry" />
        </mxCell>
        <mxCell id="HttRAKErzIjSeqWAfoua-26" style="edgeStyle=orthogonalEdgeStyle;rounded=0;orthogonalLoop=1;jettySize=auto;html=1;endArrow=none;endFill=0;shape=link;" parent="1" source="HttRAKErzIjSeqWAfoua-24" target="HttRAKErzIjSeqWAfoua-5" edge="1">
          <mxGeometry relative="1" as="geometry" />
        </mxCell>
        <mxCell id="HttRAKErzIjSeqWAfoua-24" value="produce" style="shape=rhombus;perimeter=rhombusPerimeter;whiteSpace=wrap;html=1;align=center;" parent="1" vertex="1">
          <mxGeometry x="799" y="222" width="120" height="60" as="geometry" />
        </mxCell>
        <mxCell id="HttRAKErzIjSeqWAfoua-33" style="rounded=0;orthogonalLoop=1;jettySize=auto;html=1;entryX=0.5;entryY=0;entryDx=0;entryDy=0;endArrow=none;endFill=0;" parent="1" source="HttRAKErzIjSeqWAfoua-27" target="HttRAKErzIjSeqWAfoua-2" edge="1">
          <mxGeometry relative="1" as="geometry" />
        </mxCell>
        <mxCell id="HttRAKErzIjSeqWAfoua-27" value="plot outline" style="ellipse;whiteSpace=wrap;html=1;align=center;" parent="1" vertex="1">
          <mxGeometry x="664" y="163" width="102" height="40" as="geometry" />
        </mxCell>
        <mxCell id="HttRAKErzIjSeqWAfoua-40" style="rounded=0;orthogonalLoop=1;jettySize=auto;html=1;endArrow=none;endFill=0;entryX=0.5;entryY=0;entryDx=0;entryDy=0;" parent="1" source="HttRAKErzIjSeqWAfoua-37" target="HttRAKErzIjSeqWAfoua-5" edge="1">
          <mxGeometry relative="1" as="geometry" />
        </mxCell>
        <mxCell id="HttRAKErzIjSeqWAfoua-37" value="&lt;u&gt;name&lt;/u&gt;" style="ellipse;whiteSpace=wrap;html=1;align=center;" parent="1" vertex="1">
          <mxGeometry x="1015" y="130" width="100" height="40" as="geometry" />
        </mxCell>
        <mxCell id="HttRAKErzIjSeqWAfoua-41" style="rounded=0;orthogonalLoop=1;jettySize=auto;html=1;endArrow=none;endFill=0;" parent="1" source="HttRAKErzIjSeqWAfoua-39" edge="1">
          <mxGeometry relative="1" as="geometry">
            <mxPoint x="1112" y="232" as="targetPoint" />
          </mxGeometry>
        </mxCell>
        <mxCell id="HttRAKErzIjSeqWAfoua-39" value="addess" style="ellipse;whiteSpace=wrap;html=1;align=center;" parent="1" vertex="1">
          <mxGeometry x="1125" y="130" width="100" height="40" as="geometry" />
        </mxCell>
        <mxCell id="HttRAKErzIjSeqWAfoua-46" style="rounded=0;orthogonalLoop=1;jettySize=auto;html=1;entryX=0.5;entryY=1;entryDx=0;entryDy=0;endArrow=none;endFill=0;" parent="1" source="HttRAKErzIjSeqWAfoua-42" target="HttRAKErzIjSeqWAfoua-6" edge="1">
          <mxGeometry relative="1" as="geometry" />
        </mxCell>
        <mxCell id="HttRAKErzIjSeqWAfoua-42" value="name" style="ellipse;whiteSpace=wrap;html=1;align=center;" parent="1" vertex="1">
          <mxGeometry x="1067" y="731" width="100" height="40" as="geometry" />
        </mxCell>
        <mxCell id="HttRAKErzIjSeqWAfoua-47" style="rounded=0;orthogonalLoop=1;jettySize=auto;html=1;entryX=0.5;entryY=1;entryDx=0;entryDy=0;endArrow=none;endFill=0;" parent="1" source="HttRAKErzIjSeqWAfoua-43" target="HttRAKErzIjSeqWAfoua-6" edge="1">
          <mxGeometry relative="1" as="geometry" />
        </mxCell>
        <mxCell id="HttRAKErzIjSeqWAfoua-43" value="birthDate" style="ellipse;whiteSpace=wrap;html=1;align=center;" parent="1" vertex="1">
          <mxGeometry x="1190" y="731" width="100" height="40" as="geometry" />
        </mxCell>
        <mxCell id="HttRAKErzIjSeqWAfoua-50" style="rounded=0;orthogonalLoop=1;jettySize=auto;html=1;endArrow=none;endFill=0;entryX=0.5;entryY=1;entryDx=0;entryDy=0;" parent="1" source="HttRAKErzIjSeqWAfoua-49" target="HttRAKErzIjSeqWAfoua-6" edge="1">
          <mxGeometry relative="1" as="geometry" />
        </mxCell>
        <mxCell id="HttRAKErzIjSeqWAfoua-49" value="&lt;u&gt;&lt;font color=&quot;#ff3333&quot;&gt;ssn&lt;/font&gt;&lt;/u&gt;" style="ellipse;whiteSpace=wrap;html=1;align=center;" parent="1" vertex="1">
          <mxGeometry x="957" y="734" width="100" height="40" as="geometry" />
        </mxCell>
        <mxCell id="HttRAKErzIjSeqWAfoua-58" style="rounded=0;orthogonalLoop=1;jettySize=auto;html=1;entryX=0.5;entryY=1;entryDx=0;entryDy=0;endArrow=none;endFill=0;" parent="1" source="HttRAKErzIjSeqWAfoua-51" target="HttRAKErzIjSeqWAfoua-1" edge="1">
          <mxGeometry relative="1" as="geometry" />
        </mxCell>
        <mxCell id="HttRAKErzIjSeqWAfoua-51" value="&lt;u&gt;&lt;font color=&quot;#ff3333&quot;&gt;ssn&lt;/font&gt;&lt;/u&gt;" style="ellipse;whiteSpace=wrap;html=1;align=center;" parent="1" vertex="1">
          <mxGeometry x="472" y="726" width="100" height="40" as="geometry" />
        </mxCell>
        <mxCell id="HttRAKErzIjSeqWAfoua-60" style="rounded=0;orthogonalLoop=1;jettySize=auto;html=1;entryX=0.5;entryY=1;entryDx=0;entryDy=0;endArrow=none;endFill=0;" parent="1" source="HttRAKErzIjSeqWAfoua-52" target="HttRAKErzIjSeqWAfoua-1" edge="1">
          <mxGeometry relative="1" as="geometry" />
        </mxCell>
        <mxCell id="HttRAKErzIjSeqWAfoua-52" value="name" style="ellipse;whiteSpace=wrap;html=1;align=center;" parent="1" vertex="1">
          <mxGeometry x="581" y="726" width="100" height="40" as="geometry" />
        </mxCell>
        <mxCell id="HttRAKErzIjSeqWAfoua-64" style="rounded=0;orthogonalLoop=1;jettySize=auto;html=1;entryX=0.5;entryY=1;entryDx=0;entryDy=0;endArrow=none;endFill=0;shape=link;" parent="1" source="HttRAKErzIjSeqWAfoua-61" target="HttRAKErzIjSeqWAfoua-2" edge="1">
          <mxGeometry relative="1" as="geometry" />
        </mxCell>
        <mxCell id="HttRAKErzIjSeqWAfoua-65" style="rounded=0;orthogonalLoop=1;jettySize=auto;html=1;endArrow=none;endFill=0;shape=link;" parent="1" source="HttRAKErzIjSeqWAfoua-61" target="HttRAKErzIjSeqWAfoua-6" edge="1">
          <mxGeometry relative="1" as="geometry" />
        </mxCell>
        <mxCell id="HttRAKErzIjSeqWAfoua-79" style="rounded=0;orthogonalLoop=1;jettySize=auto;html=1;entryX=0;entryY=0.5;entryDx=0;entryDy=0;endArrow=none;endFill=0;" parent="1" source="HttRAKErzIjSeqWAfoua-61" target="HttRAKErzIjSeqWAfoua-78" edge="1">
          <mxGeometry relative="1" as="geometry" />
        </mxCell>
        <mxCell id="HttRAKErzIjSeqWAfoua-61" value="appeared" style="shape=rhombus;perimeter=rhombusPerimeter;whiteSpace=wrap;html=1;align=center;" parent="1" vertex="1">
          <mxGeometry x="790" y="408" width="120" height="60" as="geometry" />
        </mxCell>
        <mxCell id="HttRAKErzIjSeqWAfoua-78" value="role" style="ellipse;whiteSpace=wrap;html=1;align=center;" parent="1" vertex="1">
          <mxGeometry x="891" y="384" width="100" height="40" as="geometry" />
        </mxCell>
        <mxCell id="HttRAKErzIjSeqWAfoua-81" style="rounded=0;orthogonalLoop=1;jettySize=auto;html=1;endArrow=none;endFill=0;" parent="1" source="HttRAKErzIjSeqWAfoua-80" target="HttRAKErzIjSeqWAfoua-61" edge="1">
          <mxGeometry relative="1" as="geometry" />
        </mxCell>
        <mxCell id="HttRAKErzIjSeqWAfoua-80" value="quotes" style="ellipse;shape=doubleEllipse;margin=3;whiteSpace=wrap;html=1;align=center;" parent="1" vertex="1">
          <mxGeometry x="825" y="344" width="100" height="40" as="geometry" />
        </mxCell>
        <mxCell id="HttRAKErzIjSeqWAfoua-82" value="1" style="text;html=1;align=center;verticalAlign=middle;resizable=0;points=[];autosize=1;strokeColor=none;fillColor=none;" parent="1" vertex="1">
          <mxGeometry x="1031" y="222" width="25" height="26" as="geometry" />
        </mxCell>
        <mxCell id="HttRAKErzIjSeqWAfoua-83" value="N" style="text;html=1;align=center;verticalAlign=middle;resizable=0;points=[];autosize=1;strokeColor=none;fillColor=none;" parent="1" vertex="1">
          <mxGeometry x="647" y="224" width="27" height="26" as="geometry" />
        </mxCell>
        <mxCell id="HttRAKErzIjSeqWAfoua-84" value="N" style="text;html=1;align=center;verticalAlign=middle;resizable=0;points=[];autosize=1;strokeColor=none;fillColor=none;" parent="1" vertex="1">
          <mxGeometry x="614" y="269" width="27" height="26" as="geometry" />
        </mxCell>
        <mxCell id="HttRAKErzIjSeqWAfoua-85" value="N" style="text;html=1;align=center;verticalAlign=middle;resizable=0;points=[];autosize=1;strokeColor=none;fillColor=none;" parent="1" vertex="1">
          <mxGeometry x="1073" y="572" width="27" height="26" as="geometry" />
        </mxCell>
        <mxCell id="HttRAKErzIjSeqWAfoua-86" value="N" style="text;html=1;align=center;verticalAlign=middle;resizable=0;points=[];autosize=1;strokeColor=none;fillColor=none;" parent="1" vertex="1">
          <mxGeometry x="562" y="272" width="27" height="26" as="geometry" />
        </mxCell>
        <mxCell id="HttRAKErzIjSeqWAfoua-87" value="N" style="text;html=1;align=center;verticalAlign=middle;resizable=0;points=[];autosize=1;strokeColor=none;fillColor=none;" parent="1" vertex="1">
          <mxGeometry x="569" y="578" width="27" height="26" as="geometry" />
        </mxCell>
        <mxCell id="HttRAKErzIjSeqWAfoua-89" style="rounded=0;orthogonalLoop=1;jettySize=auto;html=1;entryX=0.5;entryY=1;entryDx=0;entryDy=0;endArrow=none;endFill=0;" parent="1" source="HttRAKErzIjSeqWAfoua-88" target="HttRAKErzIjSeqWAfoua-1" edge="1">
          <mxGeometry relative="1" as="geometry" />
        </mxCell>
        <mxCell id="HttRAKErzIjSeqWAfoua-88" value="birthDate" style="ellipse;whiteSpace=wrap;html=1;align=center;" parent="1" vertex="1">
          <mxGeometry x="690" y="731" width="100" height="40" as="geometry" />
        </mxCell>
        <mxCell id="T6nnYEbNVx6Htkj4pjiF-10" style="edgeStyle=orthogonalEdgeStyle;rounded=0;orthogonalLoop=1;jettySize=auto;html=1;strokeColor=default;endArrow=none;endFill=0;" edge="1" parent="1" source="T6nnYEbNVx6Htkj4pjiF-1" target="T6nnYEbNVx6Htkj4pjiF-8">
          <mxGeometry relative="1" as="geometry" />
        </mxCell>
        <mxCell id="T6nnYEbNVx6Htkj4pjiF-1" value="Genre" style="whiteSpace=wrap;html=1;align=center;" vertex="1" parent="1">
          <mxGeometry x="117" y="232" width="100" height="40" as="geometry" />
        </mxCell>
        <mxCell id="T6nnYEbNVx6Htkj4pjiF-6" style="edgeStyle=orthogonalEdgeStyle;rounded=0;orthogonalLoop=1;jettySize=auto;html=1;endArrow=none;endFill=0;shape=link;" edge="1" parent="1" source="T6nnYEbNVx6Htkj4pjiF-4" target="HttRAKErzIjSeqWAfoua-2">
          <mxGeometry relative="1" as="geometry" />
        </mxCell>
        <mxCell id="T6nnYEbNVx6Htkj4pjiF-4" value="genred_by" style="shape=rhombus;perimeter=rhombusPerimeter;whiteSpace=wrap;html=1;align=center;" vertex="1" parent="1">
          <mxGeometry x="316" y="222" width="120" height="60" as="geometry" />
        </mxCell>
        <mxCell id="T6nnYEbNVx6Htkj4pjiF-5" style="edgeStyle=orthogonalEdgeStyle;rounded=0;orthogonalLoop=1;jettySize=auto;html=1;entryX=0;entryY=0.5;entryDx=0;entryDy=0;endArrow=none;endFill=0;shape=link;" edge="1" parent="1" source="T6nnYEbNVx6Htkj4pjiF-1" target="T6nnYEbNVx6Htkj4pjiF-4">
          <mxGeometry relative="1" as="geometry" />
        </mxCell>
        <mxCell id="T6nnYEbNVx6Htkj4pjiF-7" value="N" style="text;html=1;align=center;verticalAlign=middle;resizable=0;points=[];autosize=1;strokeColor=none;fillColor=none;" vertex="1" parent="1">
          <mxGeometry x="217" y="253" width="27" height="26" as="geometry" />
        </mxCell>
        <mxCell id="T6nnYEbNVx6Htkj4pjiF-8" value="name" style="ellipse;whiteSpace=wrap;html=1;align=center;" vertex="1" parent="1">
          <mxGeometry x="117" y="321" width="100" height="40" as="geometry" />
        </mxCell>
        <mxCell id="T6nnYEbNVx6Htkj4pjiF-9" value="N" style="text;html=1;align=center;verticalAlign=middle;resizable=0;points=[];autosize=1;strokeColor=none;fillColor=none;" vertex="1" parent="1">
          <mxGeometry x="517" y="253" width="27" height="26" as="geometry" />
        </mxCell>
        <mxCell id="T6nnYEbNVx6Htkj4pjiF-11" value="N" style="text;html=1;align=center;verticalAlign=middle;resizable=0;points=[];autosize=1;strokeColor=none;fillColor=none;" vertex="1" parent="1">
          <mxGeometry x="650" y="601" width="27" height="26" as="geometry" />
        </mxCell>
      </root>
    </mxGraphModel>
  </diagram>
</mxfile>
